<?xml version="1.0" ?><!DOCTYPE svg  PUBLIC '-//W3C//DTD SVG 1.1//EN'  'http://www.w3.org/Graphics/SVG/1.1/DTD/svg11.dtd'><svg enable-background="new 0 0 48 48" height="26px" id="Layer_4" version="1.1" viewBox="0 0 48 48" width="22px" xml:space="preserve" xmlns="http://www.w3.org/2000/svg" xmlns:xlink="http://www.w3.org/1999/xlink"><g><path d="M22.069,16.379c0.234-0.312,0.377-0.696,0.377-1.116c0-1.035-0.838-1.873-1.873-1.873   c-0.769,0-1.427,0.463-1.716,1.125l0,0c0,0-1.226,1.742-2.125,6.921c-0.39,2.266-0.806,4.625-0.806,4.625   c-1.11-2.266-1.851-7.261-2.267-8.185c-1.942-1.988-3.145,0.647-3.145,0.647l-1.579,2.952l-3.185,5.788l-2.11-11.524H3.64   c-0.148-0.86-0.893-1.517-1.796-1.517c-1.009,0-1.827,0.818-1.827,1.827c0,0.157,0.025,0.306,0.063,0.451   c0.271,1.921,1.375,9.55,2.342,12.891c1.066,3.688,2.221,7.185,4.4,3.93l0.004,0.008c0,0,0.027-0.048,0.065-0.115   c0.067-0.103,0.132-0.191,0.201-0.308c0.129-0.219,0.233-0.427,0.329-0.632c0.963-1.725,2.872-5.211,3.972-7.692   c0,0,1.665,5.642,4.301,8.509c2.636,2.866,3.468,0.555,3.653,0c0.046-0.972,0.265-12.702,2.723-16.709   C22.07,16.379,22.07,16.379,22.069,16.379z" fill="#ffffff"/><path d="M27.444,15.798l-0.002-0.004c0,0-0.055,0.015-0.133,0.04c-0.017,0.005-0.031,0.01-0.048,0.015   c-0.016,0.006-0.029,0.01-0.048,0.017c-0.269,0.088-0.494,0.19-0.651,0.292c-0.001,0.001-0.001,0.002-0.002,0.002   c-1.442,0.762-4.207,2.988-4.715,9.021c0.127,4.428,2.536,6.046,4.024,6.626c0.011,0.004,0.227,0.104,0.594,0.192   c0.342,0.093,0.562,0.118,0.562,0.118l0.001-0.019c1.279,0.155,3.396-0.092,5.271-2.709c2.914-4.07,2.637-9.158,0.486-11.816   C31.098,15.489,28.804,15.435,27.444,15.798z M27.646,28.299c-0.437,0.023-0.699-0.162-0.777-0.231   c-0.618-0.565-1.717-1.962-1.276-4.504c0.449-2.597,2.015-3.612,2.771-3.958c0.224-0.092,0.714-0.214,1.258,0.16   c0.475,0.353,0.984,1.098,1.058,2.688C30.809,25.323,29.701,27.92,27.646,28.299z" fill="#ffffff"/><path d="M46.326,17.574c-1.687-2.085-3.98-2.14-5.339-1.776l-0.003-0.004c0,0-0.054,0.015-0.132,0.04   c-0.018,0.005-0.032,0.01-0.048,0.015c-0.018,0.006-0.03,0.01-0.048,0.017c-0.269,0.088-0.494,0.19-0.652,0.292   c0,0.001,0,0.002-0.002,0.002c-1.441,0.762-4.206,2.988-4.715,9.021c0.128,4.428,2.536,6.046,4.023,6.626   c0.011,0.004,0.228,0.104,0.594,0.192c0.343,0.093,0.563,0.118,0.563,0.118V32.1c1.279,0.155,3.397-0.092,5.272-2.709   C48.754,25.32,48.477,20.233,46.326,17.574z M41.188,28.299c-0.438,0.023-0.7-0.162-0.778-0.231   c-0.618-0.565-1.717-1.962-1.276-4.504c0.45-2.597,2.016-3.612,2.772-3.958c0.223-0.092,0.713-0.214,1.257,0.16   c0.475,0.353,0.984,1.098,1.059,2.688C44.352,25.323,43.243,27.92,41.188,28.299z" width="26px" height="22px" fill="#ffffff"/></g></svg>